<?xml version="1.0" standalone="no"?>
<!DOCTYPE svg PUBLIC "-//W3C//DTD SVG 20010904//EN"
 "http://www.w3.org/TR/2001/REC-SVG-20010904/DTD/svg10.dtd">
<svg version="1.0" xmlns="http://www.w3.org/2000/svg"
 width="544.000000pt" height="500.000000pt" viewBox="0 0 544.000000 500.000000"
 preserveAspectRatio="xMidYMid meet">

<g transform="translate(0.000000,500.000000) scale(0.100000,-0.100000)"
fill="#000000" stroke="none">
<path d="M2625 4844 c-221 -13 -576 -86 -720 -149 -16 -8 -64 -28 -105 -46
-333 -142 -630 -365 -879 -657 -162 -191 -270 -371 -368 -612 -8 -19 -19 -44
-24 -54 -11 -18 -66 -189 -88 -271 -94 -342 -99 -758 -16 -1135 13 -58 31
-125 40 -150 9 -25 23 -67 31 -95 9 -27 22 -63 29 -80 8 -16 28 -64 45 -105
206 -495 658 -966 1132 -1179 35 -15 86 -38 113 -50 28 -12 59 -26 69 -32 22
-13 203 -70 291 -93 193 -49 366 -70 590 -69 728 3 1375 310 1840 872 140 169
243 333 315 501 18 41 48 108 66 148 19 40 34 78 34 85 0 6 11 46 24 87 25 79
65 266 86 410 19 126 17 459 -4 600 -33 214 -85 430 -131 535 -8 17 -28 64
-46 105 -117 276 -276 508 -504 736 -215 216 -420 359 -695 484 -179 81 -183
83 -215 90 -16 4 -77 21 -135 38 -99 28 -195 47 -355 71 -77 11 -326 20 -420
15z m435 -114 c291 -44 462 -95 685 -204 261 -126 453 -262 645 -457 251 -253
451 -583 552 -909 79 -257 113 -499 105 -765 -14 -517 -179 -973 -496 -1370
-249 -311 -544 -532 -926 -694 -524 -223 -1187 -224 -1727 -5 -392 160 -696
392 -974 744 -132 168 -285 463 -355 686 -73 231 -104 446 -103 709 0 199 7
266 45 465 66 337 238 701 464 975 332 405 782 682 1280 791 261 57 574 70
805 34z"/>
<path d="M2460 4514 c-252 -27 -455 -89 -648 -198 -288 -163 -506 -437 -596
-748 -112 -388 -1 -813 293 -1121 239 -251 597 -413 959 -434 l103 -6 -3 49
-3 49 -115 12 c-567 59 -996 386 -1134 865 -122 423 43 875 423 1161 204 154
449 242 736 265 l90 7 0 50 0 50 -35 1 c-19 1 -51 0 -70 -2z"/>
<path d="M2790 2823 l0 -50 91 -6 c258 -19 516 -108 712 -248 117 -83 268
-243 331 -350 102 -171 144 -315 153 -514 4 -109 2 -147 -17 -235 -55 -271
-204 -500 -444 -683 -195 -149 -460 -244 -735 -264 l-92 -6 3 -51 3 -51 65 3
c224 11 474 81 669 188 152 82 349 258 438 390 203 300 266 625 183 950 -105
411 -422 739 -863 893 -116 40 -268 71 -394 78 l-103 6 0 -50z"/>
</g>
</svg>
